<svg height='300px' width='300px'  fill="#e11848" xmlns:dc="http://purl.org/dc/elements/1.1/" xmlns:cc="http://creativecommons.org/ns#" xmlns:rdf="http://www.w3.org/1999/02/22-rdf-syntax-ns#" xmlns:svg="http://www.w3.org/2000/svg" xmlns="http://www.w3.org/2000/svg" xmlns:sodipodi="http://sodipodi.sourceforge.net/DTD/sodipodi-0.dtd" xmlns:inkscape="http://www.inkscape.org/namespaces/inkscape" version="1.1" x="0px" y="0px" viewBox="0 0 32 32"><g transform="translate(0,-1020.3622)"><path style="text-indent:0;text-transform:none;direction:ltr;block-progression:tb;baseline-shift:baseline;color:#000000;enable-background:accumulate;" d="M 16 0 C 7.1693651 0 0 7.1694 0 16 C 0 24.8306 7.1693651 32 16 32 C 24.830626 32 32 24.8306 32 16 C 32 7.1694 24.830626 0 16 0 z M 16 1 C 24.290192 1 31 7.7098 31 16 C 31 24.2902 24.290192 31 16 31 C 7.7097991 31 1 24.2902 1 16 C 1 7.7098 7.7097991 1 16 1 z M 9.78125 8.9375 C 9.0938046 8.9375 8.5162024 9.4164 8.375 10.0625 L 8.3125 10.0625 C 7.5197992 10.0625 6.875 10.73855 6.875 11.53125 L 6.875 21.625 C 6.875 22.4178 7.5197992 23.0625 8.3125 23.0625 L 22.53125 23.0625 C 23.323951 23.0625 23.96875 22.4178 23.96875 21.625 L 23.96875 21.34375 C 24.632168 21.21615 25.125 20.6373 25.125 19.9375 L 25.125 10.375 C 25.125 9.5823 24.480201 8.9375 23.6875 8.9375 L 9.78125 8.9375 z M 9.78125 9.53125 L 23.6875 9.53125 C 24.163366 9.53125 24.53125 9.8991 24.53125 10.375 L 24.53125 19.9375 C 24.53125 20.3147 24.302864 20.6367 23.96875 20.75 L 23.96875 11.53125 C 23.96875 10.73855 23.323951 10.0625 22.53125 10.0625 L 8.96875 10.0625 C 9.0867867 9.7375 9.4104681 9.53125 9.78125 9.53125 z M 11.4375 12.15625 A 0.29520982 0.29520982 0 0 1 11.5 12.15625 A 0.29520982 0.29520982 0 0 1 11.53125 12.15625 A 0.29520982 0.29520982 0 0 1 11.625 12.15625 A 0.29520982 0.29520982 0 0 1 11.71875 12.21875 L 14.15625 13.9375 C 14.544524 13.7493 14.947976 13.625 15.40625 13.625 C 17.032988 13.625 18.375 14.96695 18.375 16.59375 C 18.375 16.69535 18.35387 16.7759 18.34375 16.875 L 21.625 19.1875 A 0.29706084 0.29706084 0 0 1 21.59375 19.6875 A 0.29706084 0.29706084 0 0 1 21.28125 19.65625 L 18.21875 17.5 C 18.102278 17.8548 17.920751 18.18645 17.6875 18.46875 L 18.25 18.875 L 20 20.125 A 0.29520982 0.29520982 0 0 1 20.125 20.21875 A 0.29520982 0.29520982 0 0 1 19.78125 20.65625 A 0.29520982 0.29520982 0 0 1 19.6875 20.59375 L 17.9375 19.34375 L 17.25 18.875 C 16.741003 19.2883 16.108779 19.53125 15.40625 19.53125 C 13.779512 19.53125 12.4375 18.22045 12.4375 16.59375 C 12.4375 16.24855 12.515012 15.9336 12.625 15.625 L 11.15625 14.5625 A 0.29520982 0.29520982 0 0 1 11.09375 14.09375 A 0.29520982 0.29520982 0 0 1 11.1875 14.03125 A 0.29520982 0.29520982 0 0 1 11.3125 14 A 0.29520982 0.29520982 0 0 1 11.5 14.0625 L 12.90625 15.0625 C 13.094882 14.7524 13.339702 14.4722 13.625 14.25 L 11.375 12.6875 A 0.29520982 0.29520982 0 0 1 11.25 12.4375 A 0.29520982 0.29520982 0 0 1 11.3125 12.25 A 0.29520982 0.29520982 0 0 1 11.40625 12.1875 A 0.29520982 0.29520982 0 0 1 11.4375 12.15625 z M 15.40625 14.21875 C 15.168252 14.21875 14.96599 14.27905 14.75 14.34375 L 16.25 15.40625 A 0.29520982 0.29520982 0 0 1 16.40625 15.625 A 0.29520982 0.29520982 0 0 1 16.34375 15.875 A 0.29520982 0.29520982 0 0 1 15.9375 15.90625 A 0.29520982 0.29520982 0 0 1 15.90625 15.875 L 14.09375 14.625 C 13.789655 14.8253 13.55764 15.08995 13.375 15.40625 L 14.15625 15.96875 A 0.29706084 0.29706084 0 0 1 14.25 16.0625 A 0.29706084 0.29706084 0 0 1 13.8125 16.4375 L 13.15625 15.96875 C 13.10501 16.16285 13.0625 16.38265 13.0625 16.59375 C 13.0625 17.90145 14.098566 18.9375 15.40625 18.9375 C 15.905901 18.9375 16.370316 18.79305 16.75 18.53125 L 16.46875 18.3125 A 0.29520982 0.29520982 0 0 1 16.34375 18.03125 A 0.29520982 0.29520982 0 0 1 16.5625 17.78125 A 0.29520982 0.29520982 0 0 1 16.75 17.8125 A 0.29520982 0.29520982 0 0 1 16.8125 17.84375 L 17.1875 18.125 C 17.430462 17.8446 17.630054 17.53095 17.71875 17.15625 L 17.4375 16.96875 A 0.29520982 0.29520982 0 0 1 17.3125 16.8125 A 0.29520982 0.29520982 0 0 1 17.46875 16.4375 A 0.29520982 0.29520982 0 0 1 17.53125 16.4375 A 0.29520982 0.29520982 0 0 1 17.625 16.40625 A 0.29520982 0.29520982 0 0 1 17.75 16.46875 C 17.68243 15.22325 16.669704 14.21875 15.40625 14.21875 z " transform="translate(0,1020.3622)" fill="#e11848" fill-opacity="1" stroke="none" marker="none" visibility="visible" display="inline" overflow="visible"></path></g></svg>