<svg id="svg207762" xmlns="http://www.w3.org/2000/svg" xmlns:xlink="http://www.w3.org/1999/xlink" viewBox="0 0 464.07 141.07"><defs><style>.cls-1{fill:url(#Degradado_sin_nombre_22);}</style><linearGradient id="Degradado_sin_nombre_22" x1="279.72" y1="242.89" x2="743.79" y2="242.89" gradientUnits="userSpaceOnUse"><stop offset="0" stop-color="#4a3e65"/><stop offset="1" stop-color="#e11848"/></linearGradient></defs><title>imagea_title1</title><path id="title" class="cls-1" d="M285.51,281.29a.85.85,0,0,0,1-1v-80.5c0-.64-.32-1.12-1-1.12H282.3c-.65,0-1,.48-1,1.12v80.5a.85.85,0,0,0,1,1Zm2.57-104.75a4.18,4.18,0,0,0-8.36,0,4.18,4.18,0,0,0,8.36,0Zm71.26,28.6c-5.14-5.31-12-8-21.85-8a60.27,60.27,0,0,0-25.7,6,1.62,1.62,0,0,0-.81,1.28v76a.92.92,0,0,0,1,1h3.21a.85.85,0,0,0,1-1V206.42a55.48,55.48,0,0,1,21.53-4.5c17,0,23.78,9.64,23.78,25.39v53a.85.85,0,0,0,1,1h3.21a.92.92,0,0,0,1-1v-53c0-7.39-1.6-13.66-4.5-18.48a40.42,40.42,0,0,1,22.82-6.91c16.55,0,26.19,9.16,26.19,25.39v53a.85.85,0,0,0,1,1h3c.65,0,1.13-.32,1.13-1V227.47c0-19.44-12.21-30.37-31.17-30.37a44.86,44.86,0,0,0-25.71,8Zm79,.16c-.32.32-.16.8,0,1.28l1.44,2.25a1.17,1.17,0,0,0,1.45.16A50.19,50.19,0,0,1,467,201.92c17.83,0,24.74,9.64,24.74,24.91v8.35A113.79,113.79,0,0,0,467,232.13c-20.73,0-32.94,9-32.94,25.06,0,16.23,14.14,25.71,32.94,25.71A76.22,76.22,0,0,0,496,277.27a1.13,1.13,0,0,0,.8-1.12V226.66c0-18-9.48-29.56-29.72-29.56-11.57,0-21.85,3.38-28.76,8.2Zm.8,51.89c0-13,9.64-20.4,27.8-20.4a116.12,116.12,0,0,1,24.74,2.89v34.06a69.44,69.44,0,0,1-24.74,4.5c-16.23,0-27.8-8.2-27.8-21.05ZM581,283.7V204a1,1,0,0,0-.8-1.12c-8-3.54-19.28-5.79-29.08-5.79-20.25,0-33.9,9.64-33.9,31.81v17.36c0,21.2,13,32,33.9,32a56.64,56.64,0,0,0,24.74-5.95v11.25c.16,15.1-7.87,25.06-26.35,25.06-11.73,0-20.08-5-27.31-11.72a.75.75,0,0,0-1.29.16l-1.61,2.25c-.32.64-.32,1,0,1.28,8.36,8,18,12.85,30.21,12.85,21.85,0,31.49-12.37,31.49-29.72Zm-58.64-37.43V228.91c0-18.47,10.6-27,28.6-27a84.26,84.26,0,0,1,24.9,4.18v61.21a53.47,53.47,0,0,1-24.58,6.11C533.62,273.42,522.38,265.39,522.38,246.27Zm144-18.64c0-19.44-13.17-30.53-32-30.53s-32,11.09-32,30.53v26c0,18.47,15.1,29.24,32,29.24,13.66,0,23.62-6.11,30.37-12.37.64-.32.64-.81.16-1.29l-1.77-2.09a.84.84,0,0,0-1.29-.16c-6.1,5.46-14.78,11.25-27.31,11.25-14.62,0-27-9-27-24.58V243.05h57.84a.92.92,0,0,0,1-1Zm-5.14,0v10.92H607.58V227.63c0-16.55,10.6-25.71,26.83-25.71C650.48,201.92,661.24,211.24,661.24,227.63Zm24.07-22.33c-.32.32-.16.8,0,1.28l1.45,2.25a1.15,1.15,0,0,0,1.44.16,50.22,50.22,0,0,1,25.71-7.07c17.83,0,24.74,9.64,24.74,24.91v8.35a113.79,113.79,0,0,0-24.74-3.05c-20.73,0-32.94,9-32.94,25.06,0,16.23,14.14,25.71,32.94,25.71A76.22,76.22,0,0,0,743,277.27a1.13,1.13,0,0,0,.8-1.12V226.66c0-18-9.48-29.56-29.72-29.56-11.57,0-21.85,3.38-28.76,8.2Zm.8,51.89c0-13,9.64-20.4,27.8-20.4a116,116,0,0,1,24.74,2.89v34.06a69.39,69.39,0,0,1-24.74,4.5c-16.23,0-27.8-8.2-27.8-21.05Z" transform="translate(-279.72 -172.36)"/></svg>