<svg height='300px' width='300px'  fill="#e11848" xmlns="http://www.w3.org/2000/svg" data-name="Layer 1" viewBox="0 0 128 128" x="0px" y="0px"><title>Miscellaneous 77 final</title><path d="M76.70813,4.15283a1.99956,1.99956,0,0,1,2.60944,1.08105L82.53387,13h4.329l-3.85-9.29639a6.00163,6.00163,0,0,0-7.835-3.24609L44.89221,13H55.34534Z"></path><path d="M93.00024,41a8,8,0,1,0-8.00006-8A8.00918,8.00918,0,0,0,93.00024,41Zm0-12a4,4,0,1,1-4,4A4.0046,4.0046,0,0,1,93.00024,29Z"></path><path d="M43.4696,33.80713A8.544,8.544,0,0,1,50.84418,35.585a2.00131,2.00131,0,0,0,1.689.35938l.34229-.08252a1.99958,1.99958,0,0,0,1.40137-1.23535,7.11415,7.11415,0,0,1,5.19244-4.68213,2.00016,2.00016,0,0,0-.93848-3.88867,11.04557,11.04557,0,0,0-7.043,5.17188,12.25214,12.25214,0,0,0-8.95758-1.30811,1.9998,1.9998,0,1,0,.93945,3.8877Z"></path><path d="M10.23346,31.68262l18.7663-7.77185V23a9.93543,9.93543,0,0,1,.72455-3.71838L8.70319,27.9873a6.00327,6.00327,0,0,0-3.24615,7.835l6.85345,16.5484A9.87921,9.87921,0,0,1,14.962,52h1.524L9.1524,34.292A1.9997,1.9997,0,0,1,10.23346,31.68262Z"></path><path d="M32.99976,23V52h4.00006v-.14062l3.00244-2.33008,6.34729,4.90411,7.37451,6.10712a2.00027,2.00027,0,1,0,2.55176-3.08105l-5.58734-4.62714,19.39264-17.0965L88.05878,53.53235l-3.37793,2.96472a1.99986,1.99986,0,1,0,2.63867,3.00586l4.9903-4.37988.00031-.00031L101.847,46.79l11.15344,12.1297V66h4.00006V23a6.00661,6.00661,0,0,0-6.00006-6H38.99982A6.00661,6.00661,0,0,0,32.99976,23Zm80.00067,0V53.0097L103.47351,42.647a2.00134,2.00134,0,0,0-2.78912-.15283l-9.60895,8.396L71.5675,31.57861a2.00062,2.00062,0,0,0-2.73-.0791L47.52576,50.2876l-6.30328-4.87012a2,2,0,0,0-2.44873.00244l-1.77393,1.37653V23a2.002,2.002,0,0,1,2-2h72.00061A2.002,2.002,0,0,1,113.00043,23Z"></path><path d="M14.962,128h98.076a5.98805,5.98805,0,0,0,5.96246-6V72a2.0001,2.0001,0,0,0-2-2H51.79633L38.50421,56.5918A1.99917,1.99917,0,0,0,37.0838,56H14.962a5.988,5.988,0,0,0-5.96246,6v60A5.988,5.988,0,0,0,14.962,128Zm-1.9624-66a1.9836,1.9836,0,0,1,1.9624-2H36.25031L49.54242,73.4082A2,2,0,0,0,50.96283,74h64.0376v48a1.9836,1.9836,0,0,1-1.9624,2H14.962a1.9836,1.9836,0,0,1-1.9624-2Z"></path><path d="M32.58569,107.41406a1.99934,1.99934,0,0,0,2.82819,0l8.00006-8a1.99927,1.99927,0,0,0,0-2.82812l-8.00006-8a1.99934,1.99934,0,0,0-2.82819,0l-8.00006,8a1.99927,1.99927,0,0,0,0,2.82813Zm1.41406-14.58545L39.1712,98l-5.17145,5.17139L28.82837,98Z"></path><path d="M62.58594,107.41406a1.99934,1.99934,0,0,0,2.82819,0l8.00006-8a1.99927,1.99927,0,0,0,0-2.82812l-8.00006-8a1.99934,1.99934,0,0,0-2.82819,0l-8.00006,8a1.99927,1.99927,0,0,0,0,2.82813Zm1.41412-14.58545L69.17145,98l-5.17139,5.17139L58.82861,98Z"></path><path d="M92.58618,107.41406a1.99934,1.99934,0,0,0,2.82819,0l8.00006-8a1.99927,1.99927,0,0,0,0-2.82812l-8.00006-8a1.99934,1.99934,0,0,0-2.82819,0l-8.00006,8a1.99927,1.99927,0,0,0,0,2.82813Zm1.41406-14.58545L99.17169,98l-5.17145,5.17139L88.82886,98Z"></path></svg>