<svg id="SvgjsSvg1001" width="288" height="288" xmlns="http://www.w3.org/2000/svg" version="1.1" xmlns:xlink="http://www.w3.org/1999/xlink" xmlns:svgjs="http://svgjs.com/svgjs"><defs id="SvgjsDefs1002"></defs><g id="SvgjsG1008" transform="matrix(1,0,0,1,0,0)"><svg xmlns="http://www.w3.org/2000/svg" width="288" height="288" fill="#eb3b49" enable-background="new 0 0 100 100" viewBox="0 0 100 100"><switch><g fill="#e11848" class="color000 svgShape"><path d="M17.8 91.8c.3 3.3 3 5.7 6.3 5.7h51.8c3.3 0 6-2.5 6.3-5.7L88 31H12L17.8 91.8zM62.7 50c0-1.7 1.4-3.2 3.2-3.2 1.7 0 3.2 1.4 3.2 3.2v28.5c0 1.7-1.4 3.2-3.2 3.2-1.7 0-3.2-1.4-3.2-3.2V50zM46.8 50c0-1.7 1.4-3.2 3.2-3.2 1.7 0 3.2 1.4 3.2 3.2v28.5c0 1.7-1.4 3.2-3.2 3.2-1.7 0-3.2-1.4-3.2-3.2V50zM31 50c0-1.7 1.4-3.2 3.2-3.2 1.7 0 3.2 1.4 3.2 3.2v28.5c0 1.7-1.4 3.2-3.2 3.2-1.7 0-3.2-1.4-3.2-3.2V50zM88 12H62.7V8.8c0-3.5-2.8-6.3-6.3-6.3H43.7c-3.5 0-6.3 2.8-6.3 6.3V12H12c-3.5 0-6.3 2.8-6.3 6.3s2.8 6.3 6.3 6.3h76c3.5 0 6.3-2.8 6.3-6.3S91.5 12 88 12z" fill="#e11848" class="color000 svgShape"></path></g></switch></svg></g></svg>