<svg id="Capa_1" data-name="Capa 1" xmlns="http://www.w3.org/2000/svg" xmlns:xlink="http://www.w3.org/1999/xlink" viewBox="0 0 240.54 240.54"><defs><style>.cls-1{fill:url(#Degradado_sin_nombre_5);}</style><linearGradient id="Degradado_sin_nombre_5" x1="29.73" y1="150" x2="270.27" y2="150" gradientUnits="userSpaceOnUse"><stop offset="0" stop-color="#4a3e65"/><stop offset="1" stop-color="#e11848"/></linearGradient></defs><title>imagea_logo1_2</title><path class="cls-1" d="M75.68,29.73H225.23c24.32,0,45,20.72,45,46V225.23c0,24.32-20.72,45-45,45H75.68c-25.23,0-45.95-20.72-45.95-45V75.68A46.14,46.14,0,0,1,75.68,29.73ZM189.19,62.16h0c0,24.33,18.92,43.25,42.34,43.25h0c-23.42,0-42.34,19.82-42.34,43.24h0c0-23.42-19.82-43.24-43.24-43.24h0A43.25,43.25,0,0,0,189.19,62.16ZM51.35,149.55c8.11,3.6,15.32,7.21,23.42,9,46.85,15.31,103.61,15.31,150.46,0,8.1-1.8,16.21-5.41,23.42-9V75.68c0-13.52-10.81-24.33-23.42-24.33H75.68A24.22,24.22,0,0,0,51.35,75.68Z" transform="translate(-29.73 -29.73)"/></svg>