<svg id="Capa_1" data-name="Capa 1" xmlns="http://www.w3.org/2000/svg" xmlns:xlink="http://www.w3.org/1999/xlink" viewBox="0 0 301 301"><defs><style>.cls-1{stroke-miterlimit:10;fill:url(#Degradado_sin_nombre_11);stroke:url(#Degradado_sin_nombre_11-2);}</style><linearGradient id="Degradado_sin_nombre_11" y1="150" x2="300" y2="150" gradientUnits="userSpaceOnUse"><stop offset="0" stop-color="#4a3e65"/><stop offset="1" stop-color="#e11848"/></linearGradient><linearGradient id="Degradado_sin_nombre_11-2" x1="-0.5" x2="300.5" xlink:href="#Degradado_sin_nombre_11"/></defs><title>imagea_logo2_2</title><path class="cls-1" d="M150,0A150,150,0,1,0,300,150,150.07,150.07,0,0,0,150,0Zm0,9.38A140.63,140.63,0,1,1,9.38,150,140.55,140.55,0,0,1,150,9.38ZM91.7,83.79A13.46,13.46,0,0,0,78.52,94.34h-.59a13.74,13.74,0,0,0-13.48,13.77v94.62a13.49,13.49,0,0,0,13.48,13.48h133.3a13.49,13.49,0,0,0,13.48-13.48V200.1a13.37,13.37,0,0,0,10.84-13.19V97.27a13.49,13.49,0,0,0-13.48-13.48Zm0,5.57H222.07A7.79,7.79,0,0,1,230,97.27v89.64a7.92,7.92,0,0,1-5.27,7.62V108.11a13.74,13.74,0,0,0-13.48-13.77H84.08A7.89,7.89,0,0,1,91.7,89.36ZM107.23,114a2.81,2.81,0,0,1,.58,0h.3a3.17,3.17,0,0,1,.87,0,2.78,2.78,0,0,1,.88.59l22.85,16.11a26.43,26.43,0,0,1,11.72-2.93,28,28,0,0,1,27.84,27.84,23,23,0,0,1-.3,2.63l30.76,21.68a2.73,2.73,0,1,1-3.22,4.4L170.8,164.06a27.82,27.82,0,0,1-5,9.08l5.27,3.81,16.41,11.72a2.7,2.7,0,0,1-2.05,5,2.59,2.59,0,0,1-.88-.58l-16.41-11.72-6.44-4.4a27.12,27.12,0,0,1-17.29,6.16,27.74,27.74,0,0,1-27.83-27.54,26.76,26.76,0,0,1,1.76-9.09l-13.77-10a2.77,2.77,0,0,1-1.07-3.76,2.69,2.69,0,0,1,.48-.63,2.89,2.89,0,0,1,.88-.59,2.84,2.84,0,0,1,1.17-.29,2.73,2.73,0,0,1,1.76.59L121,141.21a28.36,28.36,0,0,1,6.73-7.62L106.64,119a2.77,2.77,0,0,1-1.17-2.35,2.22,2.22,0,0,1,1.46-2.34A2.83,2.83,0,0,1,107.23,114Zm37.2,19.34a21,21,0,0,0-6.15,1.17l14.06,10a2.79,2.79,0,1,1-2.93,4.69l-.29-.29-17-11.72a21.31,21.31,0,0,0-6.74,7.32l7.32,5.28a2.64,2.64,0,0,1,.88.88,2.78,2.78,0,0,1-4.1,3.51l-6.15-4.39a23.57,23.57,0,0,0-.88,5.86,21.81,21.81,0,0,0,22,22,22.11,22.11,0,0,0,12.6-3.81l-2.64-2a2.79,2.79,0,0,1,.88-5,4,4,0,0,1,2.35.59l3.51,2.63a21.41,21.41,0,0,0,5-9.08l-2.63-1.76a2.84,2.84,0,0,1,.29-5,2.91,2.91,0,0,1,.59,0,3,3,0,0,1,.87-.29,2.84,2.84,0,0,1,1.18.58A22.15,22.15,0,0,0,144.43,133.3Z" transform="translate(0.5 0.5)"/></svg>