<svg height='300px' width='300px'  fill="#e11848" xmlns="http://www.w3.org/2000/svg" xmlns:xlink="http://www.w3.org/1999/xlink" xml:space="preserve" version="1.1" style="shape-rendering:geometricPrecision;text-rendering:geometricPrecision;image-rendering:optimizeQuality;" viewBox="0 0 333 333" x="0px" y="0px" fill-rule="evenodd" clip-rule="evenodd"><defs><style type="text/css">
   
    .fil0 {fill:#e11848;fill-rule:nonzero}
   
  </style></defs><g><path class="fil0" d="M84 33l166 0c27,0 50,23 50,51l0 166c0,27 -23,50 -50,50l-166 0c-28,0 -51,-23 -51,-50l0 -166c0,-28 23,-51 51,-51zm126 36l0 0c0,27 21,48 47,48l0 0c-26,0 -47,22 -47,48l0 0c0,-26 -22,-48 -48,-48l0 0c26,0 48,-21 48,-48zm-153 97c9,4 17,8 26,10 52,17 115,17 167,0 9,-2 18,-6 26,-10l0 -82c0,-15 -12,-27 -26,-27l-166 0c-15,0 -27,12 -27,27l0 82z"></path></g></svg>