<svg id="Capa_1" data-name="Capa 1" xmlns="http://www.w3.org/2000/svg" xmlns:xlink="http://www.w3.org/1999/xlink" viewBox="0 0 156.5 156.97"><defs><style>.cls-1{fill:url(#Degradado_sin_nombre_11);}</style><linearGradient id="Degradado_sin_nombre_11" x1="21.7" y1="99.85" x2="178.2" y2="99.85" gradientUnits="userSpaceOnUse"><stop offset="0" stop-color="#b1e667"/><stop offset="1" stop-color="#c79fea"/></linearGradient></defs><path class="cls-1" d="M89.1,22.1C63.6,25.4,40.9,41.9,29.5,65.5c-6,12.4-7.8,20.5-7.8,34.5,0,15.7,3.5,28.4,11.4,41.6C36.9,147.8,45,157,46.7,157c1.4,0,4.3-2.8,4.3-4,0-.5-2.3-3.5-5-6.7-18.9-22-22.4-53.3-8.8-79.6,5.9-11.4,18.1-23.6,29.5-29.5a70.76,70.76,0,0,1,66.6,0c16.8,8.7,30.9,26.6,35.7,45.4a75.77,75.77,0,0,1,0,34.8c-6.3,24.8-26.8,45.3-51.6,51.6-15.1,3.9-34.5,2-47.4-4.5-6.1-3.1-9-2.7-9,1.4,0,2.5.7,3.2,5.9,5.5,15.9,7.1,36.4,8.9,52.6,4.7,35.4-9.2,58.7-39.5,58.7-76.1,0-34.9-21.1-64.1-54.2-74.9A78.38,78.38,0,0,0,89.1,22.1ZM89,59.4c-18.9,5.5-31,21.4-31,40.7,0,3.7-.5,7.1-1,7.4-2.6,1.6-5,8.6-5,14.6,0,11.7,6.3,19.5,17.7,22,8.2,1.9,8.3,1.7,8.3-22,0-10.8-.4-20.2-.9-21-.6-1-2.4-1.2-6.6-.9l-5.7.5.6-5c1.3-11.3,9.2-21.7,20.4-27,13-6.1,27-3.6,38.1,6.8a32.1,32.1,0,0,1,7.7,11.1c2.5,5.6,3.2,6.4,5.5,6.4,3.7,0,4.2-2.2,1.8-8.4a41.58,41.58,0,0,0-23.7-23.7C108.1,58.3,95.3,57.5,89,59.4ZM70,122.6v14.6l-3.2-1.9c-9.2-5.4-10.5-17.1-2.7-24.4C69.7,105.7,70,106.4,70,122.6Zm51-.7c0,24.8-.3,24.1,7.9,22.2a22.38,22.38,0,0,0,16.7-28.4c-2.7-9.2-10.9-15.7-20-15.7H121Zm12.4-11.8c8.4,6.6,7.2,19.7-2.2,25.2l-3.2,1.9V122.6C128,106.7,128.3,106.1,133.4,110.1Z" transform="translate(-21.7 -21.36)"/></svg>