<svg height='300px' width='300px'  fill="#bfb6d2" xmlns="http://www.w3.org/2000/svg" viewBox="0 0 64 64" x="0px" y="0px"><g><polygon points="16.414 60 47.586 60 32 44.414 16.414 60"></polygon><path d="M13,29a1,1,0,0,1,1-1H52V15a1,1,0,0,0-1-1H13a3,3,0,0,0-3,3V41a3,3,0,0,0,3,3ZM12,17a1,1,0,0,1,1-1h4v2H14v3H12Zm0,6h2v2H12Z"></path><path d="M5,44H9.026A4.948,4.948,0,0,1,8,41V17a5.006,5.006,0,0,1,5-5H50V9a1,1,0,0,0-1-1H21a3,3,0,0,1-3-3,1,1,0,0,0-1-1H5A1,1,0,0,0,4,5V43A1,1,0,0,0,5,44Z"></path><polygon points="59.586 60 44 44.414 39.414 49 50.414 60 59.586 60"></polygon><circle cx="38" cy="37" r="3"></circle><path d="M15,58.586,31.293,42.293a1,1,0,0,1,1.414,0L38,47.586l5.293-5.293a1,1,0,0,1,1.414,0L61,58.586V30H15ZM38,32a5,5,0,1,1-5,5A5.006,5.006,0,0,1,38,32Z"></path></g></svg>