<svg height='300px' width='300px'  fill="#e11848" xmlns:dc="http://purl.org/dc/elements/1.1/" xmlns:cc="http://creativecommons.org/ns#" xmlns:rdf="http://www.w3.org/1999/02/22-rdf-syntax-ns#" xmlns:svg="http://www.w3.org/2000/svg" xmlns="http://www.w3.org/2000/svg" viewBox="0 0 32 32" version="1.1" x="0px" y="0px"><g style="" transform="translate(-160.01577,40.000001)" display="inline"><path style="color:#000000;font-style:normal;font-variant:normal;font-weight:normal;font-stretch:normal;font-size:medium;line-height:normal;font-family:sans-serif;font-variant-ligatures:normal;font-variant-position:normal;font-variant-caps:normal;font-variant-numeric:normal;font-variant-alternates:normal;font-variant-east-asian:normal;font-feature-settings:normal;font-variation-settings:normal;text-indent:0;text-align:start;text-decoration:none;text-decoration-line:none;text-decoration-style:solid;text-decoration-color:#000000;letter-spacing:normal;word-spacing:normal;text-transform:none;writing-mode:lr-tb;direction:ltr;text-orientation:mixed;dominant-baseline:auto;baseline-shift:baseline;text-anchor:start;white-space:normal;shape-padding:0;shape-margin:0;inline-size:0;clip-rule:nonzero;display:inline;overflow:visible;visibility:visible;opacity:1;isolation:auto;mix-blend-mode:normal;color-interpolation:sRGB;color-interpolation-filters:linearRGB;solid-color:#000000;solid-opacity:1;vector-effect:none;fill:#e11848;fill-opacity:1;fill-rule:nonzero;stroke:none;stroke-linecap:butt;stroke-linejoin:round;stroke-miterlimit:4;stroke-dasharray:none;stroke-dashoffset:0;stroke-opacity:1;color-rendering:auto;image-rendering:auto;shape-rendering:auto;text-rendering:auto;enable-background:accumulate;stop-color:#000000;stop-opacity:1" d="m 165.0918,-35.990234 c -1.68912,0 -3.08008,1.390956 -3.08008,3.080078 v 19.759765 c -0.0854,0.60145 0.3808,1.139472 0.98828,1.140625 h 20 c 1.05681,0 2.07973,-0.656224 2.52344,-1.736328 l 4.27344,-10.402344 c 0.71796,-1.567177 -0.31144,-2.921871 -1.87699,-2.921871 V -29.4375 c 0,-1.4035 -1.15898,-2.5625 -2.5625,-2.5625 h -10.33008 l -1.9414,-3.478516 c -0.17722,-0.316695 -0.51209,-0.512536 -0.875,-0.511718 z m 6.5332,2 1.94141,3.478515 c 0.17688,0.316082 0.51083,0.511826 0.87304,0.511719 h 10.91797 c 0.3225,0 0.5625,0.239762 0.5625,0.5625 v 2.357422 c -5.19087,0.01954 -10.43168,0.0098 -15.64062,0.0098 -1.31091,-1e-6 -2.44339,0.871751 -3.02344,2.091796 -1.08123,2.417228 -2.16319,4.838864 -3.24437,7.257808 v -15.189482 c 0,-0.615846 0.44417,-1.080078 1.05976,-1.080078 z"></path></g></svg>