<svg xmlns="http://www.w3.org/2000/svg" xmlns:xlink="http://www.w3.org/1999/xlink" width="1200" height="1200" viewBox="0 0 1200 1200"><g transform="translate(600 600) scale(-0.69 0.69) rotate(0) translate(-600 -600)" style="fill:#bfb6d2"><svg fill="#bfb6d2" xmlns="http://www.w3.org/2000/svg" xmlns:xlink="http://www.w3.org/1999/xlink" version="1.1" x="0px" y="0px" viewBox="0 0 1024 1024" style="enable-background:new 0 0 1024 1024;" xml:space="preserve"><g><path d="M913.7,455.1l-12.5-286.7c-1.1-24.8-20.9-44.6-45.7-45.7l-286.7-12.5c-13.4-0.6-26.4,4.5-35.9,14L124.3,533   c-18.7,18.7-18.7,48.9,0,67.6l299.1,299.1c18.7,18.7,48.9,18.7,67.6,0L899.7,491C909.2,481.5,914.3,468.5,913.7,455.1z    M784.5,316.5c-21.3,21.3-55.8,21.3-77,0c-21.3-21.3-21.3-55.8,0-77c21.3-21.3,55.8-21.3,77,0C805.7,260.8,805.7,295.3,784.5,316.5   z"></path><g><path d="M923.7,455.1c-1.4-32.7-2.8-65.4-4.3-98.1c-2.2-51.6-4.5-103.3-6.7-154.9c-0.5-11.1-0.8-22.2-1.4-33.3    c-1.7-31.3-26.1-54.6-57.1-56c-37.9-1.7-75.7-3.3-113.6-4.9c-49.5-2.2-99.1-4.3-148.6-6.5c-13-0.6-27.1-2.5-39.8,0.9    c-13.7,3.6-23.4,12.3-33,21.9c-22.5,22.5-45,45-67.5,67.5c-36.6,36.6-73.2,73.2-109.9,109.9c-38.7,38.7-77.3,77.3-116,116    c-28.6,28.6-57.2,57.2-85.8,85.8c-6.8,6.8-13.5,13.5-20.3,20.3c-1.8,1.8-3.7,3.6-5.3,5.6c-14.1,16.7-17.9,39.9-9.4,60.1    c4.9,11.7,13.7,19.8,22.4,28.5c11.6,11.6,23.1,23.1,34.7,34.7c36.5,36.5,72.9,72.9,109.4,109.4c35.6,35.6,71.2,71.2,106.8,106.8    c10.5,10.5,20.9,20.9,31.4,31.4c2.1,2.1,4.2,4.2,6.3,6.3c10.2,10.1,23,16,37.3,17.3c16.7,1.4,33.2-5.3,45.1-16.9    c1.4-1.3,2.7-2.7,4.1-4.1c7.7-7.7,15.3-15.3,23-23c29.9-29.9,59.7-59.7,89.6-89.6c38.9-38.9,77.9-77.9,116.8-116.8    c36-36,71.9-71.9,107.9-107.9c20.9-20.9,41.8-41.8,62.6-62.6c1.4-1.4,2.9-2.8,4.3-4.3C917.9,486.8,924.1,471.4,923.7,455.1    c-0.3-12.8-20.3-12.9-20,0c0.3,11.3-3.7,21.4-11.7,29.4c-1.8,1.8-3.6,3.6-5.3,5.3c-8.2,8.2-16.3,16.3-24.5,24.5    c-30.1,30.1-60.1,60.1-90.2,90.2c-38.6,38.6-77.1,77.1-115.7,115.7c-35.4,35.4-70.8,70.8-106.2,106.2c-20.5,20.5-41,41-61.6,61.6    c-1.4,1.4-2.8,2.9-4.3,4.3c-8.6,8.5-20.4,12.7-32.5,11c-13.1-1.9-21.2-10.7-29.9-19.4c-27.1-27.1-54.2-54.2-81.3-81.3    c-38.4-38.4-76.9-76.9-115.3-115.3c-27.9-27.9-55.9-55.9-83.8-83.8c-7.2-7.2-15.6-14.2-19-24.1c-4.8-14-1.4-29,9-39.5    c1.2-1.2,2.5-2.5,3.7-3.7c19.9-19.9,39.8-39.8,59.7-59.7c35-35,70-70,105-105c38.7-38.7,77.3-77.3,116-116    c30.5-30.5,60.9-60.9,91.4-91.4c8.6-8.6,17.3-17.3,25.9-25.9c8-8,15.4-15.3,27.3-17.5c4.6-0.8,9.4-0.4,14.1-0.2    c6.3,0.3,12.5,0.5,18.8,0.8c21.9,1,43.8,1.9,65.6,2.9c51.8,2.3,103.5,4.5,155.3,6.8c13.2,0.6,26.3,1.1,39.5,1.7    c20.6,0.9,36.6,16.3,37.5,37.1c1.7,36.8,3.2,73.6,4.8,110.3c2.2,49.5,4.3,99,6.5,148.5c0.4,8.9,0.8,17.7,1.2,26.6    C904.2,468,924.2,468,923.7,455.1z"></path><path d="M777.4,309.5c-13.1,12.8-32.9,16.8-49.8,9.1c-17.4-7.9-27.9-26.4-25.9-45.4c1.9-18.6,16-34.1,34-38.5    c17.6-4.2,37,3.1,47,18.2C794.6,270.8,792.3,294.2,777.4,309.5c-9,9.2,5.1,23.4,14.1,14.1c19.1-19.6,24-48.5,12.6-73.4    c-10.9-23.8-37.6-39-63.6-36.4c-27.1,2.7-50.6,21.8-57.1,48.6c-6.4,26.4,4.5,53.9,26.8,69.2c25.2,17.3,59.8,13,81.3-8    C800.8,314.6,786.6,300.5,777.4,309.5z"></path></g></g><g><g><path d="M777.4,309.5c-13.1,12.8-32.9,16.8-49.8,9.1c-17.4-7.9-27.9-26.4-25.9-45.4c1.9-18.6,16-34.1,34-38.5    c17.6-4.2,37,3.1,47,18.2C794.6,270.8,792.3,294.2,777.4,309.5c-9,9.2,5.1,23.4,14.1,14.1c19.1-19.6,24-48.5,12.6-73.4    c-10.9-23.8-37.6-39-63.6-36.4c-27.1,2.7-50.6,21.8-57.1,48.6c-6.4,26.4,4.5,53.9,26.8,69.2c25.2,17.3,59.8,13,81.3-8    C800.8,314.6,786.6,300.5,777.4,309.5z"></path></g></g><g><g><path d="M777.4,309.5c-13.1,12.8-32.9,16.8-49.8,9.1c-17.4-7.9-27.9-26.4-25.9-45.4c1.9-18.6,16-34.1,34-38.5    c17.6-4.2,37,3.1,47,18.2C794.6,270.8,792.3,294.2,777.4,309.5c-9,9.2,5.1,23.4,14.1,14.1c19.1-19.6,24-48.5,12.6-73.4    c-10.9-23.8-37.6-39-63.6-36.4c-27.1,2.7-50.6,21.8-57.1,48.6c-6.4,26.4,4.5,53.9,26.8,69.2c25.2,17.3,59.8,13,81.3-8    C800.8,314.6,786.6,300.5,777.4,309.5z"></path></g></g></svg></g></svg>