<svg id="SvgjsSvg1001" width="288" height="288" xmlns="http://www.w3.org/2000/svg" version="1.1" xmlns:xlink="http://www.w3.org/1999/xlink" xmlns:svgjs="http://svgjs.com/svgjs"><defs id="SvgjsDefs1002"></defs><g id="SvgjsG1008" transform="matrix(1,0,0,1,0,0)"><svg xmlns="http://www.w3.org/2000/svg" xmlns:svgjs="http://svgjs.com/svgjs" xmlns:xlink="http://www.w3.org/1999/xlink" width="288" height="288"><svg xmlns="http://www.w3.org/2000/svg" width="288" height="288" fill="#fff" viewBox="0 0 8.467 8.467"><path fill="#e11848" fill-rule="evenodd" d="M 16 1 C 13.488202 1.0013606 11.019706 1.6415334 8.8203125 2.8476562 A 1.0000999 1.0000999 0 1 0 9.78125 4.6015625 C 11.689162 3.5552759 13.827428 3.0011717 16 3 C 23.190894 2.9962205 29 8.8084662 29 16 C 29 19.691949 27.462893 23.012792 25 25.376953 L 25 20 C 25 18.355301 23.644703 17 22 17 L 20.451172 17 C 21.408566 15.935768 21.998041 14.536097 21.998047 13 C 21.998059 9.6980914 19.297962 6.9980469 15.996094 6.9980469 C 12.694226 6.9980469 10.00194 9.6980914 10.001953 13 C 10.001959 14.535889 10.589466 15.935819 11.544922 17 L 10 17 C 8.3552978 17 7 18.355301 7 20 L 7 25.376953 C 4.5371765 23.012802 3.000264 19.691988 3 16 C 2.9998443 13.822198 3.5448309 11.678847 4.5878906 9.7675781 A 1.0000999 1.0000999 0 1 0 2.8339844 8.8105469 C 1.6303536 11.016052 0.99982036 13.487899 1 16 C 1.0005915 24.272365 7.7275734 31 16 31 C 24.272426 31 31 24.272441 31 16 C 31 7.7275969 24.273076 0.99554016 16 1 z M 6.1152344 5.1015625 A 0.99999995 0.99999995 0 0 0 5.3925781 5.3925781 A 0.99999995 0.99999995 0 0 0 5.3925781 6.8066406 A 0.99999995 0.99999995 0 0 0 6.8085938 6.8066406 A 0.99999995 0.99999995 0 0 0 6.8066406 5.3925781 A 0.99999995 0.99999995 0 0 0 6.1152344 5.1015625 z M 15.996094 8.9980469 C 18.217083 8.9980469 19.998056 10.778998 19.998047 13 C 19.998039 15.220926 18.217065 17 15.996094 17 C 13.775122 17 12.003915 15.220926 12.003906 13 C 12.003898 10.778998 13.775104 8.9980469 15.996094 8.9980469 z M 10 19 L 22 19 C 22.571301 19 23 19.428687 23 20 L 23 26.949219 C 20.979296 28.242048 18.582181 29 16 29 C 13.417819 29 11.020643 28.242039 9 26.949219 L 9 20 C 9 19.428687 9.4286991 19 10 19 z " class="color000 svgShape colorb1e667" color="#000" style="line-height:normal;font-variant-ligatures:normal;font-variant-position:normal;font-variant-caps:normal;font-variant-numeric:normal;font-variant-alternates:normal;font-feature-settings:normal;text-indent:0;text-align:start;text-decoration-line:none;text-decoration-style:solid;text-decoration-color:#000;text-transform:none;text-orientation:mixed;white-space:normal;shape-padding:0;isolation:auto;mix-blend-mode:normal;solid-color:#000;solid-opacity:1" enable-background="accumulate" font-family="sans-serif" font-weight="400" overflow="visible" paint-order="stroke fill markers" transform="scale(.26458)"></path></svg></svg></g></svg>